<?xml version="1.0" encoding="iso-8859-1"?>
<!-- Generator: Adobe Illustrator 18.0.0, SVG Export Plug-In . SVG Version: 6.00 Build 0)  -->
<!DOCTYPE svg PUBLIC "-//W3C//DTD SVG 1.1//EN" "http://www.w3.org/Graphics/SVG/1.1/DTD/svg11.dtd">
<svg version="1.1" id="Capa_1" xmlns="http://www.w3.org/2000/svg" xmlns:xlink="http://www.w3.org/1999/xlink" x="0px" y="0px"
	 viewBox="0 0 54.628 46.991" style="enable-background:new 0 0 54.628 46.991;" xml:space="preserve">
<path d="M3.161,11.325h48.307c0.049,0,0.095-0.044,0.095-0.094V0.094C51.562,0.047,51.516,0,51.468,0H3.159
	C3.112,0,3.063,0.047,3.063,0.096v11.135C3.063,11.279,3.111,11.325,3.161,11.325z M45.778,3.949h2.764v2.764h-2.764V3.949z
	 M29.095,3.947h11.691v2.767H29.095V3.947z M6.083,6.363h1.87V4.298h-1.87V1.533h2.766v2.414H9.82V1.533h2.766v2.414h0.971V1.533
	h2.766v2.416h0.972V1.533h2.764v2.416h0.973V1.533h2.765v2.414h1.869v2.767h-1.869v2.412h-2.765V6.71h-0.973v2.416h-2.764V6.713
	h-0.972v2.413h-2.766V6.714h-0.971v2.412H9.82V6.71H8.849v2.415H6.083V6.363z M49.394,15.504v-1.851H5.233v1.851H49.394z
	 M54.533,37.729h-0.645v7.196h0.645c0.046,0,0.095-0.048,0.095-0.095v-7.007C54.628,37.776,54.581,37.729,54.533,37.729z
	 M54.528,2.063h-0.64v7.195h0.645c0.048,0,0.095-0.047,0.095-0.095V2.158C54.628,2.113,54.579,2.063,54.528,2.063z M54.528,19.896
	h-0.64v7.198h0.645c0.048,0,0.095-0.049,0.095-0.1v-7.003C54.628,19.945,54.579,19.896,54.528,19.896z M0,37.827v7.006
	c0,0.045,0.047,0.093,0.096,0.093h0.64v-7.196h-0.64C0.047,37.729,0,37.776,0,37.827z M0,19.993v7.005
	c0,0.049,0.048,0.097,0.1,0.097h0.636v-7.198H0.099C0.047,19.896,0,19.943,0,19.993z M49.394,33.336v-1.851H5.233v1.851H49.394z
	 M51.468,35.665H3.159c-0.047,0-0.095,0.048-0.095,0.096v11.134c0,0.05,0.048,0.097,0.098,0.097h48.307
	c0.048,0,0.095-0.047,0.095-0.097v-4.453v-6.683C51.562,35.713,51.517,35.665,51.468,35.665z M25.667,42.376h-1.869v2.413h-2.765
	v-2.414h-0.973v2.416h-2.764v-2.415h-0.972v2.413h-2.766v-2.412h-0.971v2.414H9.82v-2.416H8.849v2.414H6.083v-2.764h1.87v-2.064
	h-1.87v-2.764h2.766v2.414H9.82v-2.414h2.766v2.412h0.971v-2.414h2.766v2.416h0.972v-2.414h2.764v2.415h0.973v-2.415h2.765v2.414
	h1.869V42.376z M40.786,42.377H29.095v-2.765h11.691V42.377z M48.542,42.375h-2.764v-2.763h2.764V42.375z M3.159,29.159h48.309
	c0.048,0,0.095-0.049,0.095-0.094V17.927c0-0.05-0.046-0.097-0.095-0.097H3.159c-0.047,0-0.095,0.048-0.095,0.099v11.135
	C3.063,29.11,3.112,29.159,3.159,29.159z M45.778,21.778h2.764v2.767h-2.764V21.778z M29.095,21.776h11.691v2.769H29.095V21.776z
	 M6.083,24.193h1.87v-2.062h-1.87v-2.766h2.766v2.413H9.82v-2.413h2.766v2.413h0.971v-2.413h2.766v2.411h0.972v-2.412h2.764v2.415
	h0.973v-2.414h2.765v2.411h1.869v2.769h-1.869v2.413h-2.765v-2.414h-0.973v2.416h-2.764v-2.414h-0.972v2.414h-2.766v-2.414h-0.971
	v2.414H9.82v-2.414H8.849v2.414H6.083V24.193z M0,2.162v7.003c0,0.049,0.047,0.094,0.099,0.094h0.638V2.063H0.099
	C0.047,2.063,0,2.11,0,2.162z"/>
<g>
</g>
<g>
</g>
<g>
</g>
<g>
</g>
<g>
</g>
<g>
</g>
<g>
</g>
<g>
</g>
<g>
</g>
<g>
</g>
<g>
</g>
<g>
</g>
<g>
</g>
<g>
</g>
<g>
</g>
</svg>
